<svg xmlns="http://www.w3.org/2000/svg" viewBox="0 0 1200 1200" width="1200" height="1200">
  <defs>
    <linearGradient id="bg" x1="0" y1="0" x2="1" y2="1">
      <stop offset="0%" stop-color="#07110d"/>
      <stop offset="35%" stop-color="#112218"/>
      <stop offset="70%" stop-color="#9DFF00"/>
      <stop offset="100%" stop-color="#FF9F1A"/>
    </linearGradient>
    <radialGradient id="glow1" cx="30%" cy="18%" r="55%">
      <stop offset="0%" stop-color="#9DFF00" stop-opacity="0.9"/>
      <stop offset="60%" stop-color="#9DFF00" stop-opacity="0.15"/>
      <stop offset="100%" stop-color="#9DFF00" stop-opacity="0"/>
    </radialGradient>
    <radialGradient id="glow2" cx="86%" cy="48%" r="45%">
      <stop offset="0%" stop-color="#00D1B2" stop-opacity="0.92"/>
      <stop offset="55%" stop-color="#00D1B2" stop-opacity="0.18"/>
      <stop offset="100%" stop-color="#00D1B2" stop-opacity="0"/>
    </radialGradient>
    <filter id="blur40"><feGaussianBlur stdDeviation="55"/></filter>
    <filter id="shadow"><feDropShadow dx="0" dy="20" stdDeviation="26" flood-color="#000000" flood-opacity="0.4"/></filter>
  </defs>
  <rect width="1200" height="1200" fill="url(#bg)"/>
  <rect width="1200" height="1200" fill="#050807" opacity="0.18"/>
  <circle cx="330" cy="240" r="330" fill="url(#glow1)" filter="url(#blur40)"/>
  <circle cx="980" cy="520" r="270" fill="url(#glow2)" filter="url(#blur40)"/>
  <g opacity="0.32" stroke="#dcffd1" fill="none">
    <path d="M60,260 C230,130 420,230 555,110 S840,65 1135,225" stroke-width="16"/>
    <path d="M40,330 C240,185 420,340 610,225 S900,190 1180,335" stroke-width="10"/>
    <path d="M40,410 C260,270 440,430 620,320 S900,280 1160,410" stroke-width="8"/>
    <path d="M110,170 C165,105 280,115 325,180 C355,225 347,305 300,348 C252,392 165,384 130,330 C82,258 80,208 110,170Z" stroke-width="7"/>
    <path d="M860,760 C935,640 1085,625 1140,720 C1195,816 1140,975 1010,1010 C900,1040 780,985 735,900 C685,806 760,723 860,760Z" stroke-width="6"/>
  </g>
  <rect x="58" y="56" width="1084" height="1088" rx="38" fill="none" stroke="#eff7e91f" stroke-width="2"/>
  <g filter="url(#shadow)">
    <rect x="76" y="84" width="180" height="46" rx="23" fill="#0c1712" opacity="0.9"/>
    <text x="104" y="115" fill="#9DFF00" font-family="Segoe UI, Arial, sans-serif" font-size="26" font-weight="700" letter-spacing="3">ÁLBUM</text>
  </g>
<text x="86" y="560" fill="#f5f9ed" font-family="Segoe UI, Arial, sans-serif" font-size="108" font-weight="800" letter-spacing="-2">Un Verano Sin Ti</text>

  <text x="90" y="687.2" fill="#d1dcc5" font-family="Segoe UI, Arial, sans-serif" font-size="42" font-weight="600">Bad Bunny · 2022</text>
  <line x1="90" y1="741.2" x2="640" y2="741.2" stroke="#9DFF00" stroke-width="6" stroke-linecap="round" opacity="0.92"/>
  <text x="90" y="1098" fill="#d8e4cf" font-family="Segoe UI, Arial, sans-serif" font-size="26" letter-spacing="5" opacity="0.92">COSTA RICA MUSIC</text>
  <text x="1110" y="1098" text-anchor="end" fill="#00D1B2" font-family="Segoe UI, Arial, sans-serif" font-size="26" font-weight="700" letter-spacing="4">DEMO EDITION</text>
</svg>